<?xml version="1.0" encoding="UTF-8"?>
<svg version="1.1" xmlns="http://www.w3.org/2000/svg" width="200" height="200">
<path d="M0 0 C1.81604485 -0.01007584 1.81604485 -0.01007584 3.66877747 -0.02035522 C6.97492552 -0.03605257 10.28082225 -0.04270768 13.58699012 -0.0439868 C15.65838988 -0.04541348 17.72976371 -0.04969291 19.801157 -0.05498123 C27.04453819 -0.0734609 34.28784602 -0.0816548 41.53125 -0.08007812 C48.25514845 -0.07887862 54.97872494 -0.09994839 61.70254201 -0.13156545 C67.49731775 -0.15783088 73.29198904 -0.16844108 79.08682376 -0.16716731 C82.53794973 -0.16666049 85.98878955 -0.17218564 89.43985558 -0.19352341 C93.2974106 -0.21323698 97.15414906 -0.20732276 101.01171875 -0.1953125 C102.13577118 -0.20655151 103.25982361 -0.21779053 104.41793823 -0.22937012 C117.70380578 -0.12487108 128.40810287 4.27360529 138.05200195 13.39208984 C148.12345799 24.04712557 151.13128979 35.17502837 151.11987305 49.46118164 C151.12659027 50.6718782 151.1333075 51.88257477 151.14022827 53.12995911 C151.15592561 56.43610716 151.16258072 59.74200389 151.16385984 63.04817176 C151.16528653 65.11957152 151.16956596 67.19094535 151.17485428 69.26233864 C151.19333394 76.50571983 151.20152785 83.74902766 151.19995117 90.99243164 C151.19875167 97.71633009 151.21982144 104.43990658 151.2514385 111.16372365 C151.27770393 116.95849939 151.28831413 122.75317068 151.28704035 128.5480054 C151.28653354 131.99913137 151.29205869 135.44997119 151.31339645 138.90103722 C151.33311003 142.75859224 151.3271958 146.6153307 151.31518555 150.47290039 C151.32642456 151.59695282 151.33766357 152.72100525 151.34924316 153.87911987 C151.24474412 167.16498742 146.84626775 177.86928451 137.7277832 187.51318359 C127.07274747 197.58463963 115.94484468 200.59247143 101.65869141 200.58105469 C99.84264656 200.59113052 99.84264656 200.59113052 97.98991394 200.60140991 C94.68376589 200.61710725 91.37786915 200.62376236 88.07170129 200.62504148 C86.00030153 200.62646817 83.9289277 200.6307476 81.85753441 200.63603592 C74.61415322 200.65451559 67.37084539 200.66270949 60.12744141 200.66113281 C53.40354295 200.65993331 46.67996647 200.68100308 39.9561494 200.71262014 C34.16137365 200.73888557 28.36670236 200.74949577 22.57186764 200.74822199 C19.12074167 200.74771518 15.66990186 200.75324033 12.21883583 200.77457809 C8.3612808 200.79429167 4.50454235 200.78837744 0.64697266 200.77636719 C-0.47707977 200.7876062 -1.6011322 200.79884521 -2.75924683 200.8104248 C-16.04511438 200.70592576 -26.74941146 196.30744939 -36.39331055 187.18896484 C-46.46476658 176.53392911 -49.47259839 165.40602632 -49.46118164 151.11987305 C-49.46789886 149.90917648 -49.47461609 148.69847992 -49.48153687 147.45109558 C-49.49723421 144.14494753 -49.50388932 140.83905079 -49.50516844 137.53288293 C-49.50659512 135.46148317 -49.51087455 133.39010934 -49.51616287 131.31871605 C-49.53464254 124.07533486 -49.54283644 116.83202703 -49.54125977 109.58862305 C-49.54006026 102.86472459 -49.56113003 96.14114811 -49.59274709 89.41733104 C-49.61901253 83.62255529 -49.62962273 77.827884 -49.62834895 72.03304929 C-49.62784214 68.58192331 -49.63336728 65.1310835 -49.65470505 61.68001747 C-49.67441862 57.82246244 -49.6685044 53.96572399 -49.65649414 50.1081543 C-49.66773315 48.98410187 -49.67897217 47.86004944 -49.69055176 46.70193481 C-49.58605272 33.41606726 -45.18757635 22.71177018 -36.0690918 13.06787109 C-25.41405607 2.99641506 -14.28615327 -0.01141674 0 0 Z " fill="#F3F1EC" transform="translate(49.170654296875,-0.29052734375)"/>
<path d="M0 0 C7.35010766 5.19885664 11.06498829 15.2376692 12.63598633 23.83422852 C13.3723294 30.23809213 13.29336876 36.67211085 13.26074219 43.11083984 C13.25011158 45.59888598 13.26063548 48.08619582 13.2734375 50.57421875 C13.29103385 66.22271932 11.26932982 81.06509176 7.70581055 96.28173828 C7.18827198 98.4966961 6.6860967 100.71474222 6.18554688 102.93359375 C3.92975516 112.78683324 1.15086237 122.39706221 -2 132 C-3.65 132 -5.3 132 -7 132 C-19.4496303 96.64611298 -32.32073394 46.5908968 -17.609375 10.59765625 C-13.695588 2.75978281 -9.51746181 -2.94176092 0 0 Z " fill="#737373" transform="translate(104,24)"/>
<path d="M0 0 C9.23712917 0.41053907 17.52997222 5.76731005 24.15625 11.97265625 C33.69407637 22.46022381 37.85488585 35.01049957 37.3671875 49.08203125 C34.57913373 78.83115815 17.94316081 109.24949025 -2 131 C-2 126.81573649 -0.1080632 123.68539846 1.6875 120 C2.42998223 118.44545323 3.17217043 116.890766 3.9140625 115.3359375 C5.07328412 112.92339153 6.23533417 110.51224036 7.3984375 108.1015625 C18.78185895 83.88314237 28.78415583 53.5104953 21.375 26.75 C17.6296547 16.68356316 12.10487368 7.4409288 2.5625 2.0625 C1.716875 1.711875 0.87125 1.36125 0 1 C0 0.67 0 0.34 0 0 Z " fill="#777776" transform="translate(109,23)"/>
<path d="M0 0 C-0.56847656 0.32871094 -1.13695312 0.65742188 -1.72265625 0.99609375 C-12.23773677 7.47366422 -18.52664477 16.86662053 -21.75 28.76953125 C-28.24836733 61.75777097 -13.60358041 99.08288366 3.1015625 127.1015625 C3.39804688 127.72804687 3.69453125 128.35453125 4 129 C3.67 129.66 3.34 130.32 3 131 C-19.2674893 107.30051782 -36.84580412 72.23480927 -36.34375 39.3671875 C-35.9136598 29.12745658 -31.7989221 20.60671483 -25 13 C-24.49984375 12.39671875 -23.9996875 11.7934375 -23.484375 11.171875 C-18.48743626 5.59276864 -7.63712736 -2.54570912 0 0 Z " fill="#767675" transform="translate(90,24)"/>
<path d="M0 0 C0.66 0.33 1.32 0.66 2 1 C1.12988281 1.69222656 1.12988281 1.69222656 0.2421875 2.3984375 C-8.63185682 9.80811807 -15.13833863 19.14403595 -16.28125 30.890625 C-17.26968089 64.33253677 2.53708127 97.71385728 24 122 C23.67 122.66 23.34 123.32 23 124 C4.44396352 104.17180026 -11.51716766 80.31462706 -19 54 C-19.36222656 52.89527344 -19.72445312 51.79054687 -20.09765625 50.65234375 C-22.96318865 39.05376024 -22.18664135 26.3215105 -16 16 C-11.73102181 9.27344628 -6.4804402 4.57010635 0 0 Z " fill="#7A7A7A" transform="translate(65,30)"/>
<path d="M0 0 C9.15136171 3.10406469 14.51307999 11.06361537 18.80859375 19.32421875 C25.07434805 33.3964866 22.16510998 47.32244929 17.07470703 61.25830078 C11.8667299 74.54443962 5.61229138 87.57755597 -3 99 C-3.40105957 99.53802246 -3.80211914 100.07604492 -4.21533203 100.63037109 C-8.92695871 106.93813049 -13.78447311 113.09821957 -19 119 C-19 114.80184897 -16.66660216 112.67391407 -14.1875 109.5 C1.54052666 88.68681776 16.09104393 62.79277238 16.25 36.1875 C16.270625 35.33607422 16.29125 34.48464844 16.3125 33.60742188 C16.37403458 23.50805921 12.96626583 15.11082222 7 7 C4.77285728 4.79074597 2.48018298 2.93454273 0 1 C0 0.67 0 0.34 0 0 Z " fill="#7E7E7D" transform="translate(134,31)"/>
<path d="M0 0 C7.26 0 14.52 0 22 0 C21 10 21 10 20 13 C13.73 13 7.46 13 1 13 C0 8 0 8 0 0 Z " fill="#747474" transform="translate(89,164)"/>
<path d="M0 0 C2.48492425 3.07809972 4.40864383 6.36363224 6.36254883 9.7878418 C12.34982202 20.27917469 19.1078327 29.83490249 27 39 C26.67 39.66 26.34 40.32 26 41 C14.9563419 29.19921167 3.91561684 15.77262656 -3 1 C-2.01 0.67 -1.02 0.34 0 0 Z " fill="#848383" transform="translate(62,113)"/>
<path d="M0 0 C0.33 0.99 0.66 1.98 1 3 C0.04370117 4.72998047 0.04370117 4.72998047 -1.45703125 6.6171875 C-1.99263672 7.30683594 -2.52824219 7.99648437 -3.08007812 8.70703125 C-3.65177734 9.42246094 -4.22347656 10.13789063 -4.8125 10.875 C-9.66442763 16.98681342 -9.66442763 16.98681342 -13 24 C-15.125 25.3125 -15.125 25.3125 -17 26 C-16.49480889 21.32484156 -14.57669604 18.76604902 -11.6875 15.125 C-9.10495892 11.82198577 -6.61075938 8.58175084 -4.625 4.875 C-3 2 -3 2 0 0 Z " fill="#E9E7E3" transform="translate(126,129)"/>
<path d="M0 0 C0.66 0.33 1.32 0.66 2 1 C1.12988281 1.69222656 1.12988281 1.69222656 0.2421875 2.3984375 C-4.97283333 6.75289384 -8.56289044 10.92486389 -11.80859375 16.8984375 C-13.54390727 19.95941675 -14.62529884 20.87509961 -18 22 C-15.71002124 12.07675871 -7.97805073 5.62624439 0 0 Z " fill="#7C7C7B" transform="translate(65,30)"/>
<path d="M0 0 C3.09390754 2.94129327 5.6262408 6.04164126 8.125 9.5 C8.80820313 10.4384375 9.49140625 11.376875 10.1953125 12.34375 C11.67730808 14.52504219 12.90589581 16.60876198 14 19 C10.1790277 16.14104555 7.23554847 13.09190766 4.25 9.375 C3.47140625 8.41335937 2.6928125 7.45171875 1.890625 6.4609375 C0 4 0 4 -1 2 C-0.67 1.34 -0.34 0.68 0 0 Z " fill="#8F8F8E" transform="translate(75,135)"/>
<path d="M0 0 C0.33 0.66 0.66 1.32 1 2 C0.14453125 4.09375 0.14453125 4.09375 -1.1875 6.5 C-1.61417969 7.2940625 -2.04085937 8.088125 -2.48046875 8.90625 C-4.13704667 11.18883551 -5.40664227 11.97820595 -8 13 C-4.90384615 3.26923077 -4.90384615 3.26923077 0 0 Z " fill="#787878" transform="translate(143,106)"/>
<path d="M0 0 C4.18283942 1.38435611 6.74895619 3.28995348 9.875 6.375 C10.67679688 7.14585938 11.47859375 7.91671875 12.3046875 8.7109375 C14 11 14 11 13.7578125 13.2890625 C13.50773438 13.85367188 13.25765625 14.41828125 13 15 C9 10 9 10 7.0625 7.5 C4.85654451 4.82611456 2.4841221 2.41511871 0 0 Z " fill="#878786" transform="translate(134,31)"/>
<path d="M0 0 C0.66 0.33 1.32 0.66 2 1 C1.38511719 1.54269531 0.77023438 2.08539063 0.13671875 2.64453125 C-0.67152344 3.35996094 -1.47976562 4.07539062 -2.3125 4.8125 C-3.11300781 5.52019531 -3.91351563 6.22789063 -4.73828125 6.95703125 C-6.54983162 8.59337122 -8.29681703 10.25272168 -10 12 C-10.66 11.34 -11.32 10.68 -12 10 C-10.56458334 8.70601853 -9.12658648 7.41489889 -7.6875 6.125 C-6.88699219 5.40570313 -6.08648437 4.68640625 -5.26171875 3.9453125 C-3 2 -3 2 0 0 Z " fill="#979695" transform="translate(65,30)"/>
<path d="M0 0 C0.99 0 1.98 0 3 0 C5 2.6875 5 2.6875 7 6 C7.5775 6.94875 8.155 7.8975 8.75 8.875 C9.36875 9.926875 9.36875 9.926875 10 11 C9.01 11 8.02 11 7 11 C5.17578125 8.84765625 5.17578125 8.84765625 3.3125 6.0625 C2.68988281 5.14597656 2.06726563 4.22945312 1.42578125 3.28515625 C0 1 0 1 0 0 Z " fill="#E9E7E3" transform="translate(78,138)"/>
<path d="M0 0 C0.66 0 1.32 0 2 0 C0.52307692 6.64615385 0.52307692 6.64615385 -2.125 8.4375 C-2.74375 8.623125 -3.3625 8.80875 -4 9 C-3.4739075 5.21213403 -2.61896089 2.82847776 0 0 Z " fill="#D9D8D4" transform="translate(113,146)"/>
<path d="M0 0 C0.66 0.66 1.32 1.32 2 2 C-0.64 4.97 -3.28 7.94 -6 11 C-6 7.39426104 -5.18292538 6.58663434 -3 3.8125 C-2.443125 3.09707031 -1.88625 2.38164062 -1.3125 1.64453125 C-0.879375 1.10183594 -0.44625 0.55914062 0 0 Z " fill="#8A8A89" transform="translate(121,139)"/>
<path d="M0 0 C2.23960447 2.87949147 4.29864224 5.76742026 6 9 C5.67 9.66 5.34 10.32 5 11 C3.96409662 9.93106782 2.94666058 8.84421512 1.9375 7.75 C1.36902344 7.14671875 0.80054687 6.5434375 0.21484375 5.921875 C-1 4 -1 4 -0.68359375 1.765625 C-0.45800781 1.18296875 -0.23242188 0.6003125 0 0 Z " fill="#898988" transform="translate(88,144)"/>
<path d="M0 0 C3.2542015 2.83430453 4.5206753 4.68607774 5 9 C0.125 4.375 0.125 4.375 -1 1 C-0.67 0.67 -0.34 0.34 0 0 Z " fill="#7C7C7B" transform="translate(70,128)"/>
<path d="M0 0 C0 3.99904969 -1.72586967 5.80200422 -4 9 C-4.66 8.34 -5.32 7.68 -6 7 C-2.25 1.125 -2.25 1.125 0 0 Z " fill="#EFEDE8" transform="translate(120,138)"/>
</svg>
