<?xml version="1.0" encoding="UTF-8"?>
<svg version="1.1" xmlns="http://www.w3.org/2000/svg" width="200" height="200">
<path d="M0 0 C1.1684697 -0.00511093 2.33693939 -0.01022186 3.54081726 -0.01548767 C7.39632318 -0.02936447 11.25164983 -0.0284276 15.10717773 -0.02612305 C17.11796285 -0.02843494 19.12874359 -0.03193911 21.13952678 -0.03552979 C27.46347869 -0.04660764 33.78737122 -0.0470738 40.11132812 -0.04101562 C46.60110596 -0.03499322 53.09066603 -0.04724645 59.58040673 -0.06858569 C65.1781865 -0.08630465 70.77589765 -0.0921865 76.37370437 -0.08894795 C79.70526525 -0.08714932 83.03654861 -0.09097269 86.36810493 -0.10366249 C124.0807502 -0.22963001 124.0807502 -0.22963001 139.04077148 13.5871582 C148.68992124 23.95363085 151.68994813 35.5301407 151.63232422 49.37109375 C151.63918747 50.53839523 151.64605072 51.70569672 151.65312195 52.90837097 C151.67132669 56.74283233 151.66756008 60.5768819 151.66186523 64.41137695 C151.66527536 66.41675486 151.66869469 68.42213295 151.67321831 70.42750865 C151.68722026 76.72808436 151.68574073 83.02852439 151.67431641 89.32910156 C151.66286083 95.78888827 151.67687724 102.24825853 151.70371288 108.70799035 C151.72601022 114.28802745 151.73247536 119.86793521 151.72663647 125.4480136 C151.72329632 128.76561098 151.72723802 132.08288689 151.7428875 135.40045738 C151.89590789 173.16651923 151.89590789 173.16651923 138.54077148 187.4621582 C127.19072494 198.0922391 114.28299004 200.74442122 99.06665039 200.67871094 C97.92817154 200.68557419 96.78969269 200.69243744 95.61671448 200.69950867 C91.89595663 200.71763889 88.17562603 200.71395863 84.45483398 200.70825195 C81.84133774 200.71282043 79.2278427 200.71812798 76.61434937 200.72413635 C71.1526082 200.734121 65.69098578 200.73091287 60.22924805 200.72070312 C53.95514257 200.70923248 47.68146511 200.72329611 41.40741599 200.7500996 C35.32319006 200.77509904 29.23915867 200.77740555 23.15488815 200.77098274 C20.58831445 200.77083037 18.02173217 200.77680402 15.45518875 200.78927422 C-21.66151537 200.94423232 -21.66151537 200.94423232 -35.95922852 187.5871582 C-46.71808176 176.09961769 -49.2396137 163.07693661 -49.17578125 147.69824219 C-49.1826445 146.51593018 -49.18950775 145.33361816 -49.19657898 144.11547852 C-49.21471489 140.25044366 -49.21102908 136.38581975 -49.20532227 132.52075195 C-49.20780493 130.49666295 -49.21215353 128.47258368 -49.21667534 126.44849831 C-49.2306488 120.0995729 -49.22921828 113.75078227 -49.21777344 107.40185547 C-49.20628567 100.88571276 -49.22039505 94.36998134 -49.24716991 87.85389274 C-49.26942155 82.22458577 -49.27594353 76.59540703 -49.2700935 70.96605927 C-49.26674678 67.61893759 -49.27073064 64.27228887 -49.28634453 60.92516899 C-49.30131815 57.19036596 -49.29053019 53.45645589 -49.2734375 49.72167969 C-49.28310547 48.63510574 -49.29277344 47.5485318 -49.30273438 46.42903137 C-49.17739219 33.26726771 -44.69369011 22.59546889 -35.67016602 13.05200195 C-25.16110215 3.11852285 -14.11197829 -0.03196813 0 0 Z " fill="#F3F1EC" transform="translate(48.771728515625,-0.274658203125)"/>
<path d="M0 0 C14.495292 -0.86971752 29.15495294 4.10167666 40.375 13.3125 C43 16 43 16 43 18 C43.58007812 18.08636719 44.16015625 18.17273438 44.7578125 18.26171875 C51.13786447 19.40928585 55.13324807 21.33841654 59.25390625 26.6015625 C62.05631106 30.8784033 62.82761785 34.91881133 62 40 C59.97560976 47.02439024 59.97560976 47.02439024 58 49 C57.60545777 50.84599688 57.25823134 52.70225822 56.9375 54.5625 C56.67259766 56.08037109 56.67259766 56.08037109 56.40234375 57.62890625 C56.26957031 58.41136719 56.13679688 59.19382813 56 60 C52.52147832 60.34029508 49.04210091 60.6709387 45.5625 61 C44.58861328 61.09539062 43.61472656 61.19078125 42.61132812 61.2890625 C36.70951151 61.84174098 30.92744322 62.09807559 25 62 C25.33 62.99 25.66 63.98 26 65 C27.02359619 65.08564209 28.04719238 65.17128418 29.10180664 65.25952148 C32.92440969 65.57989543 36.74678161 65.90295891 40.5690918 66.22680664 C42.21877018 66.36620471 43.86850915 66.50488778 45.51831055 66.64282227 C47.89909152 66.84199965 50.27963777 67.04380602 52.66015625 67.24609375 C53.38960953 67.3065538 54.11906281 67.36701385 54.87062073 67.42930603 C59.27632105 67.80674739 63.62815451 68.33531896 68 69 C64.64630955 71.96616899 61.67619824 72.74190864 57.3203125 73.60546875 C56.67109833 73.73440018 56.02188416 73.8633316 55.35299683 73.99617004 C53.97725688 74.26606922 52.60043345 74.53049596 51.22265625 74.78979492 C49.16280325 75.18033269 47.10910635 75.59561002 45.0546875 76.01367188 C31.83333502 78.61923659 20.3243206 79.48158895 7.75 74 C5.93317601 73.24786028 4.11551004 72.49775009 2.296875 71.75 C1.51666992 71.41484375 0.73646484 71.0796875 -0.06738281 70.734375 C-1.96702193 69.88159683 -1.96702193 69.88159683 -4 70 C-5.59777524 72.17751179 -5.59777524 72.17751179 -7.125 74.875 C-7.66382813 75.77992187 -8.20265625 76.68484375 -8.7578125 77.6171875 C-10.1540893 79.84772022 -10.1540893 79.84772022 -10 82 C-5.09573204 84.40209043 -1.58228587 85.62025399 4 85 C4.804375 84.505 5.60875 84.01 6.4375 83.5 C10.22961755 81.28022387 12.63745704 81.50745483 17 82 C19.0625 83.75 19.0625 83.75 20 86 C19.6875 88.25 19.6875 88.25 19 90 C15.50765756 90.09978121 12.40562852 89.77842938 9 89 C9 91.31 9 93.62 9 96 C7.02 95.505 7.02 95.505 5 95 C4.67 93.68 4.34 92.36 4 91 C3.09121094 91.05220703 3.09121094 91.05220703 2.1640625 91.10546875 C-5.70633393 91.3597431 -12.75813799 90.58025752 -19.0625 85.5625 C-20.91939785 83.10660284 -21.60173898 81.97020172 -22 79 C-20.77808788 76.44640587 -19.53634417 74.14712838 -18.0625 71.75 C-17.67642578 71.1003125 -17.29035156 70.450625 -16.89257812 69.78125 C-15.93941582 68.18087871 -14.97114076 66.5895258 -14 65 C-18.2657579 65.83712159 -19.54889947 67.36288309 -22 71 C-23.92870399 74.59137985 -24.93297697 77.38562225 -25.375 81.4375 C-23.44937734 86.42661326 -20.11231052 88.13440254 -15.6640625 90.91015625 C-10.96699705 94.59480437 -9.72044097 99.14798771 -8.8125 104.875 C-8.65394531 105.84179688 -8.49539062 106.80859375 -8.33203125 107.8046875 C-8.22246094 108.52914062 -8.11289063 109.25359375 -8 110 C-7.38125 109.01 -7.38125 109.01 -6.75 108 C-5.88375 107.01 -5.88375 107.01 -5 106 C-3.68 106 -2.36 106 -1 106 C-1.33 106.5775 -1.66 107.155 -2 107.75 C-3.27075898 110.19883862 -3.27075898 110.19883862 -3 114 C0.49234244 114.09978121 3.59437148 113.77842938 7 113 C7.495 116.465 7.495 116.465 8 120 C3.74116559 122.83922294 -0.00300182 122.74029603 -5 122 C-9.76665034 118.78528233 -12.30627602 113.41719306 -15.3046875 108.6015625 C-17.90518964 104.61093018 -20.05811976 101.61787099 -24.75 100.125 C-25.4925 100.08375 -26.235 100.0425 -27 100 C-28.59468098 101.59468098 -28.28538976 103.22826282 -28.375 105.4375 C-28.2795582 111.50239281 -26.61604684 116.12803014 -23 121 C-10.71900257 132.06952573 3.61941861 132.6898628 19.27832031 132.18359375 C24.64692188 131.82144912 29.20783571 130.36924603 34 128 C34.83660156 127.59136719 35.67320312 127.18273437 36.53515625 126.76171875 C38.75907553 125.59370911 40.87959562 124.34496724 43 123 C43.886875 122.443125 44.77375 121.88625 45.6875 121.3125 C52.42118979 114.57881021 54.66500277 108.34923392 54.69921875 98.8828125 C53.77328377 95.06527052 52.30583493 94.0178473 49 92 C46.2142849 91.23498354 43.8102867 91.35538696 41 92 C37.78986953 93.8764117 37.78986953 93.8764117 36 97 C35.82238259 100.67583445 35.82238259 100.67583445 37 104 C40.22791555 106.1519437 41.28400809 106.20086443 45 106 C45.66 104.02 46.32 102.04 47 100 C45.02 100 43.04 100 41 100 C40.67 99.01 40.34 98.02 40 97 C42.36445821 95.51126706 43.73904068 94.99363514 46.5625 95.0625 C49 96 49 96 50.875 98.25 C52.21885232 101.53497233 52.3136776 102.71580599 51 106 C48.40868521 109.42968134 46.92766349 110.80746607 42.6875 111.6875 C37.40813495 110.7032116 33.76192635 107.76192635 30 104 C29.32347021 98.47500668 30.44307958 95.23879976 33.51953125 90.80078125 C36.85780912 86.74023746 39.69698196 85.18914778 44.875 84.4375 C50.98156249 84.76505508 55.40759859 88.28510618 59.4375 92.625 C62.44826125 97.2013571 62.63122032 101.68904284 62 107 C59.77775941 116.20784889 56.72033605 124.10317028 50 131 C49.33097656 131.69609375 48.66195312 132.3921875 47.97265625 133.109375 C38.31242277 142.40276417 26.76225625 146.09610272 14 149 C13.16339844 149.1959375 12.32679687 149.391875 11.46484375 149.59375 C-4.79747879 152.2740694 -20.26399814 148.71235852 -34 140 C-37.65283192 137.2579917 -40.84518463 134.29581271 -44 131 C-44.62003906 130.41089844 -45.24007812 129.82179687 -45.87890625 129.21484375 C-56.98286877 117.9121526 -62.21426742 101.52412057 -62.375 86.0625 C-62.20792151 68.4300415 -56.39001456 53.05054648 -43.79296875 40.546875 C-35.90865492 33.35726295 -26.24692346 29.81654264 -16.48828125 25.83203125 C-15.35096558 25.36349731 -15.35096558 25.36349731 -14.19067383 24.88549805 C-12.77688688 24.3140275 -11.35507063 23.7618594 -9.92456055 23.23364258 C-6.32494929 21.87856027 -6.32494929 21.87856027 -3.73046875 19.16015625 C-3.55128906 18.46792969 -3.37210938 17.77570312 -3.1875 17.0625 C-2.97867188 16.28132813 -2.76984375 15.50015625 -2.5546875 14.6953125 C-1.55100874 9.81828192 -0.70880589 4.92828565 0 0 Z " fill="#5871B6" transform="translate(98,25)"/>
<path d="M0 0 C0 0.66 0 1.32 0 2 C0.86238281 1.91492188 1.72476563 1.82984375 2.61328125 1.7421875 C6.92641367 2.07052284 8.77901048 3.50707269 12.1875 6.125 C13.21230469 6.89070313 14.23710938 7.65640625 15.29296875 8.4453125 C19.7312083 12.63378099 21.24737048 16.94495224 22.1875 22.875 C22.34605469 23.84179688 22.50460938 24.80859375 22.66796875 25.8046875 C22.77753906 26.52914062 22.88710937 27.25359375 23 28 C23.61875 27.01 23.61875 27.01 24.25 26 C25.11625 25.01 25.11625 25.01 26 24 C27.32 24 28.64 24 30 24 C29.67 24.5775 29.34 25.155 29 25.75 C27.72924102 28.19883862 27.72924102 28.19883862 28 32 C31.49234244 32.09978121 34.59437148 31.77842938 38 31 C38.495 34.465 38.495 34.465 39 38 C34.74116559 40.83922294 30.99699818 40.74029603 26 40 C21.23334966 36.78528233 18.69372398 31.41719306 15.6953125 26.6015625 C13.09481036 22.61093018 10.94188024 19.61787099 6.25 18.125 C5.5075 18.08375 4.765 18.0425 4 18 C2.40531902 19.59468098 2.71461024 21.22826282 2.625 23.4375 C2.7204418 29.50239281 4.38395316 34.12803014 8 39 C20.28099743 50.06952573 34.61941861 50.6898628 50.27832031 50.18359375 C55.64692188 49.82144912 60.20783571 48.36924603 65 46 C65.83660156 45.59136719 66.67320312 45.18273437 67.53515625 44.76171875 C69.75907553 43.59370911 71.87959562 42.34496724 74 41 C74.886875 40.443125 75.77375 39.88625 76.6875 39.3125 C83.42118979 32.57881021 85.66500277 26.34923392 85.69921875 16.8828125 C84.77328377 13.06527052 83.30583493 12.0178473 80 10 C77.2142849 9.23498354 74.8102867 9.35538696 72 10 C68.78986953 11.8764117 68.78986953 11.8764117 67 15 C66.82238259 18.67583445 66.82238259 18.67583445 68 22 C71.22791555 24.1519437 72.28400809 24.20086443 76 24 C76.66 22.02 77.32 20.04 78 18 C76.02 18 74.04 18 72 18 C71.505 16.515 71.505 16.515 71 15 C73.36445821 13.51126706 74.73904068 12.99363514 77.5625 13.0625 C80 14 80 14 81.875 16.25 C83.21885232 19.53497233 83.3136776 20.71580599 82 24 C79.40868521 27.42968134 77.92766349 28.80746607 73.6875 29.6875 C68.40813495 28.7032116 64.76192635 25.76192635 61 22 C60.32347021 16.47500668 61.44307958 13.23879976 64.51953125 8.80078125 C67.85780912 4.74023746 70.69698196 3.18914778 75.875 2.4375 C81.98156249 2.76505508 86.40759859 6.28510618 90.4375 10.625 C93.44826125 15.2013571 93.63122032 19.68904284 93 25 C90.77775941 34.20784889 87.72033605 42.10317028 81 49 C80.33097656 49.69609375 79.66195312 50.3921875 78.97265625 51.109375 C69.31242277 60.40276417 57.76225625 64.09610272 45 67 C44.16339844 67.1959375 43.32679687 67.391875 42.46484375 67.59375 C26.20252121 70.2740694 10.73600186 66.71235852 -3 58 C-6.65283192 55.2579917 -9.84518463 52.29581271 -13 49 C-13.62003906 48.41089844 -14.24007812 47.82179687 -14.87890625 47.21484375 C-24.80920736 37.10681913 -31.10576526 21.32183492 -31.1875 7.3125 C-31.14023518 5.54119455 -31.08340182 3.76997206 -31 2 C-27.52147832 1.65970492 -24.04210091 1.3290613 -20.5625 1 C-19.58861328 0.90460938 -18.61472656 0.80921875 -17.61132812 0.7109375 C-11.70951151 0.15825902 -5.92744322 -0.09807559 0 0 Z " fill="#0599C5" transform="translate(67,107)"/>
<path d="M0 0 C14.77340789 -0.27358163 28.82478514 3.83063347 40.375 13.3125 C43 16 43 16 43 18 C43.58007812 18.08636719 44.16015625 18.17273438 44.7578125 18.26171875 C51.81929628 19.53185362 55.61488081 21.66083314 59.875 27.625 C61 30 61 30 61 33 C60.01 33 59.02 33 58 33 C57.525625 32.195625 57.05125 31.39125 56.5625 30.5625 C55.26644144 27.8421105 55.26644144 27.8421105 52.8125 27.1875 C52.214375 27.125625 51.61625 27.06375 51 27 C51.495 27.8971875 51.495 27.8971875 52 28.8125 C53 31 53 31 53 34 C49.67207939 34.42068522 46.3428217 34.72320585 43 35 C41.89527344 35.11472656 40.79054688 35.22945312 39.65234375 35.34765625 C31.01998669 35.89275342 31.01998669 35.89275342 28.12109375 33.35546875 C27.16217121 31.94713292 26.2450218 30.50947269 25.37109375 29.046875 C23.02444426 25.54361479 19.98178971 24.13664564 16 23 C9.75802709 21.95635803 4.89442741 22.68828365 -0.30859375 26.3671875 C-3.94003845 29.87283157 -5.4355933 34.3067799 -7 39 C-11.1805857 39.43046104 -15.36149341 39.85760419 -19.54272461 40.28173828 C-20.96371509 40.42634448 -22.38461526 40.57184104 -23.80541992 40.71826172 C-25.85311903 40.92912811 -27.90112649 41.13674139 -29.94921875 41.34375 C-31.17987061 41.46943359 -32.41052246 41.59511719 -33.6784668 41.72460938 C-36.47626373 41.95657666 -39.1955979 42.05585531 -42 42 C-38.38980129 36.15893776 -35.33223407 33.53988471 -29.0625 30.875 C-28.3204834 30.54008545 -27.5784668 30.2051709 -26.81396484 29.86010742 C-20.92373731 27.2520812 -14.92803368 25.15471082 -8.7578125 23.30078125 C-5.27601212 21.65851563 -4.48803287 20.53704938 -3 17 C-2.26313785 14.08497617 -1.76816464 11.15803503 -1.3125 8.1875 C-1.18294922 7.39923828 -1.05339844 6.61097656 -0.91992188 5.79882812 C-0.60387031 3.86740187 -0.30063711 1.93388555 0 0 Z " fill="#6D51B7" transform="translate(98,25)"/>
<path d="M0 0 C5.41300273 2.40125685 9.09495644 5.95553789 11.765625 11.296875 C12.26696755 17.73719857 12.74511418 23.90530901 8.765625 29.296875 C3.84292366 34.32659159 0.14095639 36.35905546 -6.921875 36.734375 C-12.95416541 36.65418207 -16.91790237 34.41994152 -21.234375 30.296875 C-24.7152347 25.82148395 -25.92534573 21.15911728 -25.60546875 15.52734375 C-24.59165003 9.43375966 -22.0296927 5.51541599 -17.109375 1.796875 C-11.46036193 -1.59809837 -6.26044695 -1.97007072 0 0 Z " fill="#F1EFEC" transform="translate(116.234375,47.703125)"/>
<path d="M0 0 C1.67814142 0.19224613 3.35655099 0.38215943 5.03515625 0.5703125 C5.99180176 0.67762695 6.94844727 0.78494141 7.93408203 0.89550781 C14.76160422 1.62541226 21.60046833 2.2416264 28.4375 2.875 C29.90267472 3.0113347 31.36784409 3.14772682 32.83300781 3.28417969 C36.30523212 3.60727298 39.77757838 3.92903336 43.25 4.25 C39.89630955 7.21616899 36.92619824 7.99190864 32.5703125 8.85546875 C31.92109833 8.98440018 31.27188416 9.1133316 30.60299683 9.24617004 C29.22725688 9.51606922 27.85043345 9.78049596 26.47265625 10.03979492 C24.41280325 10.43033269 22.35910635 10.84561002 20.3046875 11.26367188 C7.08333502 13.86923659 -4.4256794 14.73158895 -17 9.25 C-18.81682399 8.49786028 -20.63448996 7.74775009 -22.453125 7 C-23.23333008 6.66484375 -24.01353516 6.3296875 -24.81738281 5.984375 C-26.71702193 5.13159683 -26.71702193 5.13159683 -28.75 5.25 C-30.34777524 7.42751179 -30.34777524 7.42751179 -31.875 10.125 C-32.41382812 11.02992187 -32.95265625 11.93484375 -33.5078125 12.8671875 C-34.9040893 15.09772022 -34.9040893 15.09772022 -34.75 17.25 C-29.84573204 19.65209043 -26.33228587 20.87025399 -20.75 20.25 C-19.945625 19.755 -19.14125 19.26 -18.3125 18.75 C-14.52038245 16.53022387 -12.11254296 16.75745483 -7.75 17.25 C-5.6875 19 -5.6875 19 -4.75 21.25 C-5.0625 23.5 -5.0625 23.5 -5.75 25.25 C-9.24234244 25.34978121 -12.34437148 25.02842938 -15.75 24.25 C-15.75 26.56 -15.75 28.87 -15.75 31.25 C-17.07 30.92 -18.39 30.59 -19.75 30.25 C-20.08 28.93 -20.41 27.61 -20.75 26.25 C-21.65878906 26.30220703 -21.65878906 26.30220703 -22.5859375 26.35546875 C-30.45633393 26.6097431 -37.50813799 25.83025752 -43.8125 20.8125 C-45.69651984 18.32073182 -46.44300321 17.28159332 -46.75 14.25 C-44.84387973 9.48840772 -42.43430953 5.16538561 -37.875 2.6875 C-36.84375 2.543125 -35.8125 2.39875 -34.75 2.25 C-33.615625 2.064375 -32.48125 1.87875 -31.3125 1.6875 C-25.94098462 1.09298276 -20.53488203 0.83699736 -15.140625 0.53125 C-11.95326282 0.38149731 -11.95326282 0.38149731 -9.78125 -0.328125 C-6.49885294 -1.00985362 -3.29297669 -0.40536589 0 0 Z " fill="#487FB8" transform="translate(122.75,89.75)"/>
<path d="M0 0 C0 0.66 0 1.32 0 2 C0.85851562 1.90976563 1.71703125 1.81953125 2.6015625 1.7265625 C6.83990499 2.06757856 9.17274046 3.79737874 12.375 6.375 C12.92027344 6.7875 13.46554688 7.2 14.02734375 7.625 C15.3994608 8.69105586 16.70618012 9.84016794 18 11 C18 11.66 18 12.32 18 13 C17.2157666 13.08040527 16.4315332 13.16081055 15.62353516 13.24365234 C0.74242965 14.77120469 -14.13644491 16.30869855 -29 18 C-31.14336161 14.5233662 -31.21277626 11.78770805 -31.125 7.75 C-31.10695312 6.67234375 -31.08890625 5.5946875 -31.0703125 4.484375 C-31.04710937 3.66453125 -31.02390625 2.8446875 -31 2 C-27.52147832 1.65970492 -24.04210091 1.3290613 -20.5625 1 C-19.58861328 0.90460938 -18.61472656 0.80921875 -17.61132812 0.7109375 C-11.70951151 0.15825902 -5.92744322 -0.09807559 0 0 Z " fill="#2686BA" transform="translate(67,107)"/>
<path d="M0 0 C1.5625 1.375 1.5625 1.375 3 3 C7.04471517 5.13471078 10.46469749 5.40493772 15 5 C15.804375 4.505 16.60875 4.01 17.4375 3.5 C21.22961755 1.28022387 23.63745704 1.50745483 28 2 C30.0625 3.75 30.0625 3.75 31 6 C30.6875 8.25 30.6875 8.25 30 10 C26.50765756 10.09978121 23.40562852 9.77842938 20 9 C20 11.31 20 13.62 20 16 C18.68 15.67 17.36 15.34 16 15 C15.67 13.68 15.34 12.36 15 11 C14.39414063 11.03480469 13.78828125 11.06960937 13.1640625 11.10546875 C6.88325399 11.30838718 0.68335474 10.9291136 -5 8 C-6.34375 6.015625 -6.34375 6.015625 -7 4 C-6.67 3.34 -6.34 2.68 -6 2 C-6.66 1.67 -7.32 1.34 -8 1 C-5.20129973 -0.39935013 -3.09501208 -0.25265405 0 0 Z " fill="#2E89BB" transform="translate(87,105)"/>
<path d="M0 0 C2.3125 1.625 2.3125 1.625 4 4 C4.61195145 7.6717087 4.48706506 9.28813568 2.375 12.375 C0 14 0 14 -3 14.5625 C-6 14 -6 14 -8.4375 11.875 C-10 9 -10 9 -10 5.875 C-8.2672175 0.89325032 -5.23199164 -0.91559854 0 0 Z " fill="#6C68B8" transform="translate(108,56)"/>
<path d="M0 0 C5 1 5 1 7 3 C7.125 5.625 7.125 5.625 7 8 C5.02 8.99 5.02 8.99 3 10 C2.01 6.7 1.02 3.4 0 0 Z " fill="#ECEAEA" transform="translate(149,52)"/>
</svg>
