<?xml version="1.0" encoding="UTF-8"?>
<svg version="1.1" xmlns="http://www.w3.org/2000/svg" width="200" height="200">
<path d="M0 0 C1.81604485 -0.01007584 1.81604485 -0.01007584 3.66877747 -0.02035522 C6.97492552 -0.03605257 10.28082225 -0.04270768 13.58699012 -0.0439868 C15.65838988 -0.04541348 17.72976371 -0.04969291 19.801157 -0.05498123 C27.04453819 -0.0734609 34.28784602 -0.0816548 41.53125 -0.08007812 C48.25514845 -0.07887862 54.97872494 -0.09994839 61.70254201 -0.13156545 C67.49731775 -0.15783088 73.29198904 -0.16844108 79.08682376 -0.16716731 C82.53794973 -0.16666049 85.98878955 -0.17218564 89.43985558 -0.19352341 C93.2974106 -0.21323698 97.15414906 -0.20732276 101.01171875 -0.1953125 C102.13577118 -0.20655151 103.25982361 -0.21779053 104.41793823 -0.22937012 C117.70380578 -0.12487108 128.40810287 4.27360529 138.05200195 13.39208984 C148.12345799 24.04712557 151.13128979 35.17502837 151.11987305 49.46118164 C151.12659027 50.6718782 151.1333075 51.88257477 151.14022827 53.12995911 C151.15592561 56.43610716 151.16258072 59.74200389 151.16385984 63.04817176 C151.16528653 65.11957152 151.16956596 67.19094535 151.17485428 69.26233864 C151.19333394 76.50571983 151.20152785 83.74902766 151.19995117 90.99243164 C151.19875167 97.71633009 151.21982144 104.43990658 151.2514385 111.16372365 C151.27770393 116.95849939 151.28831413 122.75317068 151.28704035 128.5480054 C151.28653354 131.99913137 151.29205869 135.44997119 151.31339645 138.90103722 C151.33311003 142.75859224 151.3271958 146.6153307 151.31518555 150.47290039 C151.32642456 151.59695282 151.33766357 152.72100525 151.34924316 153.87911987 C151.24474412 167.16498742 146.84626775 177.86928451 137.7277832 187.51318359 C127.07274747 197.58463963 115.94484468 200.59247143 101.65869141 200.58105469 C99.84264656 200.59113052 99.84264656 200.59113052 97.98991394 200.60140991 C94.68376589 200.61710725 91.37786915 200.62376236 88.07170129 200.62504148 C86.00030153 200.62646817 83.9289277 200.6307476 81.85753441 200.63603592 C74.61415322 200.65451559 67.37084539 200.66270949 60.12744141 200.66113281 C53.40354295 200.65993331 46.67996647 200.68100308 39.9561494 200.71262014 C34.16137365 200.73888557 28.36670236 200.74949577 22.57186764 200.74822199 C19.12074167 200.74771518 15.66990186 200.75324033 12.21883583 200.77457809 C8.3612808 200.79429167 4.50454235 200.78837744 0.64697266 200.77636719 C-0.47707977 200.7876062 -1.6011322 200.79884521 -2.75924683 200.8104248 C-16.04511438 200.70592576 -26.74941146 196.30744939 -36.39331055 187.18896484 C-46.46476658 176.53392911 -49.47259839 165.40602632 -49.46118164 151.11987305 C-49.46789886 149.90917648 -49.47461609 148.69847992 -49.48153687 147.45109558 C-49.49723421 144.14494753 -49.50388932 140.83905079 -49.50516844 137.53288293 C-49.50659512 135.46148317 -49.51087455 133.39010934 -49.51616287 131.31871605 C-49.53464254 124.07533486 -49.54283644 116.83202703 -49.54125977 109.58862305 C-49.54006026 102.86472459 -49.56113003 96.14114811 -49.59274709 89.41733104 C-49.61901253 83.62255529 -49.62962273 77.827884 -49.62834895 72.03304929 C-49.62784214 68.58192331 -49.63336728 65.1310835 -49.65470505 61.68001747 C-49.67441862 57.82246244 -49.6685044 53.96572399 -49.65649414 50.1081543 C-49.66773315 48.98410187 -49.67897217 47.86004944 -49.69055176 46.70193481 C-49.58605272 33.41606726 -45.18757635 22.71177018 -36.0690918 13.06787109 C-25.41405607 2.99641506 -14.28615327 -0.01141674 0 0 Z " fill="#F3F0EC" transform="translate(49.170654296875,-0.29052734375)"/>
<path d="M0 0 C1.41732422 0.65355469 1.41732422 0.65355469 2.86328125 1.3203125 C20.41430405 10.20506263 32.30188604 24.51432061 38.9375 42.875 C40.19457142 47.23445923 40.76978508 51.47463251 41 56 C41.07605469 57.175625 41.15210938 58.35125 41.23046875 59.5625 C42.05224178 77.75469861 35.11065061 94.43315893 23 108 C12.39928746 119.46607682 -3.95901664 127.85636948 -19.578125 129.33984375 C-38.64552187 129.83846815 -56.18131916 124.77799184 -70.765625 112.17578125 C-82.52829501 100.72157286 -91.73329104 85.50757082 -92.43359375 68.7578125 C-92.45064081 66.54694034 -92.45172211 64.33589214 -92.4375 62.125 C-92.45748047 61.03058594 -92.47746094 59.93617187 -92.49804688 58.80859375 C-92.49335883 50.88580199 -90.92004281 44.34945167 -88 37 C-87.45835205 37.42998291 -86.9167041 37.85996582 -86.35864258 38.30297852 C-78.15363497 44.74999364 -71.46351752 47.01709291 -61 46 C-54.77446895 44.65927629 -49.50508488 41.56154241 -45.77734375 36.26171875 C-41.53116948 29.1543231 -41.14014986 22.14946856 -42 14 C-43.94266214 8.67710573 -47.29614224 4.25257742 -51 0 C-49.783125 -0.474375 -48.56625 -0.94875 -47.3125 -1.4375 C-46.28576172 -1.83775391 -46.28576172 -1.83775391 -45.23828125 -2.24609375 C-31.83917336 -6.75923131 -12.79268586 -5.94407626 0 0 Z " fill="#5B01D1" transform="translate(127,38)"/>
<path d="M0 0 C17.43279767 13.62593673 30.32645513 31.3609362 34.83984375 53.44140625 C37.58181209 76.26092787 34.39171826 98.1918722 21.2265625 117.421875 C19.32999246 119.81983712 17.35617601 122.10232858 15.3125 124.375 C14.85746094 124.97054687 14.40242187 125.56609375 13.93359375 126.1796875 C2.56103837 140.9130876 -15.20576513 148.03374141 -32.6875 152.375 C-33.30310791 152.5500708 -33.91871582 152.7251416 -34.55297852 152.90551758 C-56.23160001 157.67367372 -77.02645802 150.51981154 -95.45703125 139.7578125 C-113.85911003 127.80686634 -126.14834158 109.00280891 -131.5625 87.875 C-135.89080371 64.80799221 -131.67501045 41.6426723 -118.62890625 22.03125 C-115.30618941 17.48507807 -111.63361254 13.38622991 -107.6875 9.375 C-106.92695312 8.6015625 -106.16640625 7.828125 -105.3828125 7.03125 C-77.07203512 -20.07283851 -31.87609899 -21.89749409 0 0 Z M-72.6875 8.375 C-72.28917969 8.81070313 -71.89085937 9.24640625 -71.48046875 9.6953125 C-65.23743384 16.71303058 -63.15318957 21.66157115 -63.40234375 31.18359375 C-64.03349264 38.24727378 -66.6267257 43.3142257 -71.6875 48.375 C-78.89972361 53.44786739 -86.03123441 54.33325818 -94.6875 53.375 C-100.34540523 51.4239982 -105.23840525 48.37918527 -109.6875 44.375 C-112.99460497 52.78390206 -114.37310784 60.16631895 -114.25 69.1875 C-114.23976807 70.32461426 -114.22953613 71.46172852 -114.21899414 72.63330078 C-113.99065548 81.70863047 -112.6793646 89.12784826 -108.6875 97.375 C-108.17960937 98.42429687 -107.67171875 99.47359375 -107.1484375 100.5546875 C-98.27100034 117.08944012 -83.56474332 128.80591111 -65.6875 134.375 C-46.33538499 138.99422343 -28.89609777 136.23376374 -11.7890625 126.44921875 C-2.70251698 120.37244838 4.67967957 112.77894598 10.3125 103.375 C10.87324219 102.46427734 10.87324219 102.46427734 11.4453125 101.53515625 C20.04893085 86.05541772 21.79634215 68.42753959 17.3125 51.375 C11.01199613 32.78256972 -0.37568258 18.60989123 -17.6875 9.375 C-27.69915187 4.54815977 -35.78951171 3.17662992 -46.8125 3.125 C-48.42898437 3.0940625 -48.42898437 3.0940625 -50.078125 3.0625 C-62.29175212 2.94526025 -62.29175212 2.94526025 -72.6875 8.375 Z " fill="#FCFBFE" transform="translate(148.6875,30.625)"/>
<path d="M0 0 C1.74503514 1.502599 3.47543111 3.02244431 5.1875 4.5625 C6.24904297 5.50029297 6.24904297 5.50029297 7.33203125 6.45703125 C24.28643082 22.34133065 34.29430993 46.01766925 35.48046875 69.03515625 C36.18822245 93.55736392 28.41416685 117.75166908 11.6875 136 C9.88626764 137.89152669 8.04748829 139.72691389 6.1875 141.5625 C5.44757813 142.30113281 4.70765625 143.03976563 3.9453125 143.80078125 C-14.39352186 161.09839974 -38.40239065 168.13841601 -63.0859375 167.7734375 C-89.91392708 166.88971763 -112.17148825 153.96349821 -130.3046875 134.94921875 C-146.99943573 115.91489508 -154.18601439 90.54011362 -152.8125 65.5625 C-150.49055524 42.06262434 -139.12129324 17.90043245 -120.8125 2.5625 C-85.52022253 -25.70876737 -36.32153012 -29.03726721 0 0 Z M-118.8125 14.5625 C-119.57433594 15.29984375 -120.33617188 16.0371875 -121.12109375 16.796875 C-136.71879469 32.90819174 -143.26308393 54.05350867 -143.17602539 76.09228516 C-142.73736606 99.43675989 -132.28198628 119.65486654 -115.94726562 135.9206543 C-110.44946391 141.16360671 -104.54253763 145.00700842 -97.8125 148.5625 C-96.92175781 149.04203125 -96.03101563 149.5215625 -95.11328125 150.015625 C-76.88823549 159.06004233 -54.492163 160.94757425 -35.06640625 154.76171875 C-33.99261719 154.36597656 -32.91882813 153.97023437 -31.8125 153.5625 C-30.21728516 152.98435547 -30.21728516 152.98435547 -28.58984375 152.39453125 C-7.25655356 144.06079336 9.14324957 128.87766931 18.55395508 108.05639648 C26.91871745 88.46896567 28.7302713 65.76785663 21.1875 45.5625 C18.8552678 40.04322968 16.1228174 34.78134848 13.1875 29.5625 C12.73890625 28.73363281 12.2903125 27.90476563 11.828125 27.05078125 C0.6691121 8.41798502 -19.70002143 -4.03039882 -40.3125 -9.3125 C-69.55551666 -14.79967279 -97.60253301 -6.26810172 -118.8125 14.5625 Z " fill="#4207BF" transform="translate(158.8125,26.4375)"/>
<path d="M0 0 C4 3 8 6 12 9 C7.48521602 8.46884894 4.65333143 6.63379708 1 4 C0.67 4.99 0.34 5.98 0 7 C-0.66 7 -1.32 7 -2 7 C-1.34 4.69 -0.68 2.38 0 0 Z " fill="#4C13C9" transform="translate(39,75)"/>
</svg>
