<?xml version="1.0" encoding="UTF-8"?>
<svg version="1.1" xmlns="http://www.w3.org/2000/svg" width="200" height="200">
<path d="M0 0 C1.81604485 -0.01007584 1.81604485 -0.01007584 3.66877747 -0.02035522 C6.97492552 -0.03605257 10.28082225 -0.04270768 13.58699012 -0.0439868 C15.65838988 -0.04541348 17.72976371 -0.04969291 19.801157 -0.05498123 C27.04453819 -0.0734609 34.28784602 -0.0816548 41.53125 -0.08007812 C48.25514845 -0.07887862 54.97872494 -0.09994839 61.70254201 -0.13156545 C67.49731775 -0.15783088 73.29198904 -0.16844108 79.08682376 -0.16716731 C82.53794973 -0.16666049 85.98878955 -0.17218564 89.43985558 -0.19352341 C93.2974106 -0.21323698 97.15414906 -0.20732276 101.01171875 -0.1953125 C102.13577118 -0.20655151 103.25982361 -0.21779053 104.41793823 -0.22937012 C117.70380578 -0.12487108 128.40810287 4.27360529 138.05200195 13.39208984 C148.12345799 24.04712557 151.13128979 35.17502837 151.11987305 49.46118164 C151.12659027 50.6718782 151.1333075 51.88257477 151.14022827 53.12995911 C151.15592561 56.43610716 151.16258072 59.74200389 151.16385984 63.04817176 C151.16528653 65.11957152 151.16956596 67.19094535 151.17485428 69.26233864 C151.19333394 76.50571983 151.20152785 83.74902766 151.19995117 90.99243164 C151.19875167 97.71633009 151.21982144 104.43990658 151.2514385 111.16372365 C151.27770393 116.95849939 151.28831413 122.75317068 151.28704035 128.5480054 C151.28653354 131.99913137 151.29205869 135.44997119 151.31339645 138.90103722 C151.33311003 142.75859224 151.3271958 146.6153307 151.31518555 150.47290039 C151.32642456 151.59695282 151.33766357 152.72100525 151.34924316 153.87911987 C151.24474412 167.16498742 146.84626775 177.86928451 137.7277832 187.51318359 C127.07274747 197.58463963 115.94484468 200.59247143 101.65869141 200.58105469 C99.84264656 200.59113052 99.84264656 200.59113052 97.98991394 200.60140991 C94.68376589 200.61710725 91.37786915 200.62376236 88.07170129 200.62504148 C86.00030153 200.62646817 83.9289277 200.6307476 81.85753441 200.63603592 C74.61415322 200.65451559 67.37084539 200.66270949 60.12744141 200.66113281 C53.40354295 200.65993331 46.67996647 200.68100308 39.9561494 200.71262014 C34.16137365 200.73888557 28.36670236 200.74949577 22.57186764 200.74822199 C19.12074167 200.74771518 15.66990186 200.75324033 12.21883583 200.77457809 C8.3612808 200.79429167 4.50454235 200.78837744 0.64697266 200.77636719 C-0.47707977 200.7876062 -1.6011322 200.79884521 -2.75924683 200.8104248 C-16.04511438 200.70592576 -26.74941146 196.30744939 -36.39331055 187.18896484 C-46.46476658 176.53392911 -49.47259839 165.40602632 -49.46118164 151.11987305 C-49.46789886 149.90917648 -49.47461609 148.69847992 -49.48153687 147.45109558 C-49.49723421 144.14494753 -49.50388932 140.83905079 -49.50516844 137.53288293 C-49.50659512 135.46148317 -49.51087455 133.39010934 -49.51616287 131.31871605 C-49.53464254 124.07533486 -49.54283644 116.83202703 -49.54125977 109.58862305 C-49.54006026 102.86472459 -49.56113003 96.14114811 -49.59274709 89.41733104 C-49.61901253 83.62255529 -49.62962273 77.827884 -49.62834895 72.03304929 C-49.62784214 68.58192331 -49.63336728 65.1310835 -49.65470505 61.68001747 C-49.67441862 57.82246244 -49.6685044 53.96572399 -49.65649414 50.1081543 C-49.66773315 48.98410187 -49.67897217 47.86004944 -49.69055176 46.70193481 C-49.58605272 33.41606726 -45.18757635 22.71177018 -36.0690918 13.06787109 C-25.41405607 2.99641506 -14.28615327 -0.01141674 0 0 Z " fill="#F3F1EC" transform="translate(49.170654296875,-0.29052734375)"/>
<path d="M0 0 C5.57894737 3.15789474 5.57894737 3.15789474 7 6 C7.64182034 10.12389949 7.94774766 12.5780802 5.59414673 16.10922241 C3.51171306 18.41483216 1.33680697 20.56175036 -0.91796875 22.69921875 C-1.72736404 23.49729446 -2.53675934 24.29537018 -3.37068176 25.11763 C-5.95808396 27.66034751 -8.57185702 30.17387455 -11.1875 32.6875 C-12.92955859 34.38941079 -14.6698148 36.09316857 -16.40820312 37.79882812 C-19.60640615 40.93177306 -22.81447207 44.05377395 -26.03588867 47.1628418 C-29.05538551 50.07829198 -32.03750838 53.02650335 -35 56 C-36.56612029 57.53795213 -38.13665195 59.07132305 -39.70727539 60.60467529 C-42.16746069 63.01079345 -44.61658718 65.42804812 -47.06542969 67.84570312 C-48.35156809 69.11171518 -49.64127213 70.37411543 -50.93457031 71.6328125 C-63.25750418 82.8430607 -63.25750418 82.8430607 -68.625 98 C-67.98225244 106.99748869 -62.22883338 113.36338662 -55.984375 119.37109375 C-55.32794006 120.01949722 -54.67150513 120.6679007 -53.99517822 121.33595276 C-51.9228182 123.37960457 -49.83717912 125.40899563 -47.75 127.4375 C-45.65131594 129.49364316 -43.55551037 131.552644 -41.4619751 133.61402893 C-40.16456854 134.88976266 -38.86369074 136.16197775 -37.559021 137.43028259 C-32.11787558 142.75051888 -32.11787558 142.75051888 -31.6875 147.3125 C-32.04875942 151.57536111 -33.01992054 153.01992054 -36 156 C-39.26047629 157.63023814 -41.37801035 157.4673535 -45 157 C-47.93595798 155.01144724 -50.42816855 152.43281353 -53 150 C-53.48722534 149.5400061 -53.97445068 149.08001221 -54.47644043 148.6060791 C-57.93984699 145.32488699 -61.35836108 142.00095353 -64.75463867 138.65039062 C-65.95543761 137.47115904 -67.16245703 136.29822698 -68.37573242 135.13183594 C-78.47666981 125.41544853 -87.32394913 115.79158498 -88.16796875 101.0703125 C-88.29042555 82.60382748 -79.48351117 72.54545129 -66.97303104 59.85849667 C-63.72256758 56.58175364 -60.45778254 53.31946263 -57.19140625 50.05859375 C-55.77401904 48.64053166 -54.35678019 47.22232126 -52.93968201 45.80397034 C-49.99046023 42.85328409 -47.03946179 39.90438976 -44.0871582 36.95678711 C-40.29851621 33.17388378 -36.51443821 29.38645158 -32.73164463 25.59770107 C-29.81590368 22.67835629 -26.8977974 19.76138526 -23.97895622 16.84514046 C-22.58152768 15.44837951 -21.18484302 14.05087391 -19.78891182 12.6526165 C-17.84808778 10.70926439 -15.9041076 8.76912669 -13.95922852 6.82983398 C-13.38211121 6.25069244 -12.8049939 5.6715509 -12.21038818 5.07485962 C-7.99721388 0.8841755 -6.03791553 -0.5805688 0 0 Z " fill="#080807" transform="translate(119,18)"/>
<path d="M0 0 C0.73353195 -0.0065712 1.4670639 -0.0131424 2.2228241 -0.01991272 C4.65530495 -0.03965621 7.08772404 -0.05131071 9.52026367 -0.0612793 C10.76586343 -0.06739259 10.76586343 -0.06739259 12.03662682 -0.07362938 C16.43196744 -0.0944948 20.8272768 -0.10879435 25.22265625 -0.11816406 C29.76238909 -0.12922841 34.30163174 -0.16362692 38.84119129 -0.20333576 C42.3319337 -0.2294831 45.822559 -0.23785421 49.31339073 -0.24144554 C50.986735 -0.24631655 52.66007386 -0.25794525 54.33332253 -0.27648354 C56.6770369 -0.30083549 59.01947905 -0.29991777 61.36328125 -0.29296875 C62.05281891 -0.30577881 62.74235657 -0.31858887 63.45278931 -0.33178711 C68.17897821 -0.28078494 70.55546746 0.84433533 73.87573242 4.17700195 C75.04587489 6.84082858 75.16919183 9.29224057 74.87573242 12.17700195 C72.01441855 17.79743991 72.01441855 17.79743991 67.87573242 19.17700195 C65.52628065 19.29228568 63.1736953 19.34647547 60.8215332 19.36987305 C60.10736237 19.37805054 59.39319153 19.38622803 58.65737915 19.39465332 C56.2952762 19.41945521 53.93323306 19.43600819 51.57104492 19.45043945 C50.35991846 19.45842497 50.35991846 19.45842497 49.1243248 19.46657181 C44.85217997 19.49327834 40.58006414 19.51266283 36.30786133 19.52709961 C32.77309353 19.54045003 29.23890149 19.56832555 25.7043457 19.60913086 C21.43440412 19.65842372 17.16498555 19.68321597 12.89477158 19.69032669 C11.26885136 19.69704142 9.64294292 19.71226946 8.01718521 19.7362175 C5.74041126 19.76784705 3.46565676 19.76791072 1.1887207 19.76049805 C-0.75295486 19.77262833 -0.75295486 19.77262833 -2.7338562 19.78500366 C-6.97521584 19.02440159 -8.41016304 17.43329009 -11.12426758 14.17700195 C-11.45426758 13.84700195 -11.78426758 13.51700195 -12.12426758 13.17700195 C-12.50776884 8.1914856 -12.19242178 5.18920361 -9.12426758 1.17700195 C-6.18825575 -0.29100396 -3.21961924 0.01244554 0 0 Z " fill="#B4B2B1" transform="translate(94.124267578125,106.822998046875)"/>
<path d="M0 0 C2.58115515 1.86911235 3.58898704 3.35031072 4.8125 6.3125 C5.10333023 10.94501003 4.66118946 13.17816029 1.85620117 16.92724609 C-0.36908255 19.36001698 -2.63349881 21.6963549 -5.00317383 23.98583984 C-6.48118547 25.41925319 -7.92176494 26.88356415 -9.36132812 28.35546875 C-19.82014162 38.81049983 -30.12419224 43.59493018 -44.69458008 43.78320312 C-52.42098866 43.67168341 -57.72267271 41.64819255 -64.1875 37.3125 C-64.1875 36.9825 -64.1875 36.6525 -64.1875 36.3125 C-62.929375 36.065 -61.67125 35.8175 -60.375 35.5625 C-57.73387673 34.88001505 -56.3295735 34.42793472 -54.1875 32.6875 C-52.69583574 29.14479738 -52.99615279 26.13944412 -53.1875 22.3125 C-52.56875 22.4775 -51.95 22.6425 -51.3125 22.8125 C-48.64664747 23.2390364 -46.13005405 23.51176175 -43.4375 23.625 C-42.65890625 23.66238281 -41.8803125 23.69976562 -41.078125 23.73828125 C-31.43550227 22.31794898 -25.73030524 16.47125189 -19.25 9.625 C-17.57610887 7.89010144 -15.90042027 6.15693474 -14.22265625 4.42578125 C-13.13029663 3.27783081 -13.13029663 3.27783081 -12.01586914 2.10668945 C-8.47145702 -1.37146313 -4.67789616 -1.47019594 0 0 Z " fill="#EBA442" transform="translate(139.1875,138.6875)"/>
<path d="M0 0 C11.35481425 2.46843788 19.11477048 9.52110144 27 17.6875 C28.26650391 18.96850586 28.26650391 18.96850586 29.55859375 20.27539062 C37.85868983 28.72820847 37.85868983 28.72820847 38.375 33.375 C37.94025532 37.57753195 36.99627847 39.08932948 34 42 C30.36217368 43.21260877 27.82264001 43.39544552 24 43 C21.5 40.9375 21.5 40.9375 19 38 C17.90716393 36.86399016 16.80213201 35.73963201 15.6875 34.625 C15.09710938 34.03460938 14.50671875 33.44421875 13.8984375 32.8359375 C5.77488367 24.97982577 -0.58884477 18.88886606 -12.375 18.875 C-14.25019095 18.90693756 -16.1253321 18.94539802 -18 19 C-12.44964797 12.21623641 -6.23557973 6.14477032 0 0 Z " fill="#EAA342" transform="translate(106,51)"/>
</svg>
