<?xml version="1.0" encoding="UTF-8"?>
<svg version="1.1" xmlns="http://www.w3.org/2000/svg" width="200" height="200">
<path d="M0 0 C1.81604485 -0.01007584 1.81604485 -0.01007584 3.66877747 -0.02035522 C6.97492552 -0.03605257 10.28082225 -0.04270768 13.58699012 -0.0439868 C15.65838988 -0.04541348 17.72976371 -0.04969291 19.801157 -0.05498123 C27.04453819 -0.0734609 34.28784602 -0.0816548 41.53125 -0.08007812 C48.25514845 -0.07887862 54.97872494 -0.09994839 61.70254201 -0.13156545 C67.49731775 -0.15783088 73.29198904 -0.16844108 79.08682376 -0.16716731 C82.53794973 -0.16666049 85.98878955 -0.17218564 89.43985558 -0.19352341 C93.2974106 -0.21323698 97.15414906 -0.20732276 101.01171875 -0.1953125 C102.13577118 -0.20655151 103.25982361 -0.21779053 104.41793823 -0.22937012 C117.70380578 -0.12487108 128.40810287 4.27360529 138.05200195 13.39208984 C148.12345799 24.04712557 151.13128979 35.17502837 151.11987305 49.46118164 C151.12659027 50.6718782 151.1333075 51.88257477 151.14022827 53.12995911 C151.15592561 56.43610716 151.16258072 59.74200389 151.16385984 63.04817176 C151.16528653 65.11957152 151.16956596 67.19094535 151.17485428 69.26233864 C151.19333394 76.50571983 151.20152785 83.74902766 151.19995117 90.99243164 C151.19875167 97.71633009 151.21982144 104.43990658 151.2514385 111.16372365 C151.27770393 116.95849939 151.28831413 122.75317068 151.28704035 128.5480054 C151.28653354 131.99913137 151.29205869 135.44997119 151.31339645 138.90103722 C151.33311003 142.75859224 151.3271958 146.6153307 151.31518555 150.47290039 C151.32642456 151.59695282 151.33766357 152.72100525 151.34924316 153.87911987 C151.24474412 167.16498742 146.84626775 177.86928451 137.7277832 187.51318359 C127.07274747 197.58463963 115.94484468 200.59247143 101.65869141 200.58105469 C99.84264656 200.59113052 99.84264656 200.59113052 97.98991394 200.60140991 C94.68376589 200.61710725 91.37786915 200.62376236 88.07170129 200.62504148 C86.00030153 200.62646817 83.9289277 200.6307476 81.85753441 200.63603592 C74.61415322 200.65451559 67.37084539 200.66270949 60.12744141 200.66113281 C53.40354295 200.65993331 46.67996647 200.68100308 39.9561494 200.71262014 C34.16137365 200.73888557 28.36670236 200.74949577 22.57186764 200.74822199 C19.12074167 200.74771518 15.66990186 200.75324033 12.21883583 200.77457809 C8.3612808 200.79429167 4.50454235 200.78837744 0.64697266 200.77636719 C-0.47707977 200.7876062 -1.6011322 200.79884521 -2.75924683 200.8104248 C-16.04511438 200.70592576 -26.74941146 196.30744939 -36.39331055 187.18896484 C-46.46476658 176.53392911 -49.47259839 165.40602632 -49.46118164 151.11987305 C-49.46789886 149.90917648 -49.47461609 148.69847992 -49.48153687 147.45109558 C-49.49723421 144.14494753 -49.50388932 140.83905079 -49.50516844 137.53288293 C-49.50659512 135.46148317 -49.51087455 133.39010934 -49.51616287 131.31871605 C-49.53464254 124.07533486 -49.54283644 116.83202703 -49.54125977 109.58862305 C-49.54006026 102.86472459 -49.56113003 96.14114811 -49.59274709 89.41733104 C-49.61901253 83.62255529 -49.62962273 77.827884 -49.62834895 72.03304929 C-49.62784214 68.58192331 -49.63336728 65.1310835 -49.65470505 61.68001747 C-49.67441862 57.82246244 -49.6685044 53.96572399 -49.65649414 50.1081543 C-49.66773315 48.98410187 -49.67897217 47.86004944 -49.69055176 46.70193481 C-49.58605272 33.41606726 -45.18757635 22.71177018 -36.0690918 13.06787109 C-25.41405607 2.99641506 -14.28615327 -0.01141674 0 0 Z " fill="#001E36" transform="translate(49.170654296875,-0.29052734375)"/>
<path d="M0 0 C5.94 0 11.88 0 18 0 C18 24.75 18 49.5 18 75 C25.59 75 33.18 75 41 75 C41 79.95 41 84.9 41 90 C27.47 90 13.94 90 0 90 C0 60.3 0 30.6 0 0 Z " fill="#2FA5FA" transform="translate(58,55)"/>
<path d="M0 0 C0 5.94 0 11.88 0 18 C-2.18098958 18.06510417 -4.36197917 18.13020833 -6.54296875 18.1953125 C-10.18991485 19.38970184 -12.15918534 21.74530969 -14 25 C-14.71485797 28.18990908 -14.72183706 31.2948686 -14.70703125 34.5546875 C-14.72971321 35.90700974 -14.72971321 35.90700974 -14.75285339 37.28665161 C-14.79564114 40.14969061 -14.80455968 43.01167348 -14.8125 45.875 C-14.83565127 47.82294457 -14.86101792 49.77086415 -14.88867188 51.71875 C-14.95558525 56.47973776 -14.97663508 61.23780546 -15 66 C-20.94 66 -26.88 66 -33 66 C-33 44.55 -33 23.1 -33 1 C-28.05 1 -23.1 1 -18 1 C-17.67 3.31 -17.34 5.62 -17 8 C-16.51789063 7.50628906 -16.03578125 7.01257813 -15.5390625 6.50390625 C-14.90742187 5.86324219 -14.27578125 5.22257812 -13.625 4.5625 C-12.68527344 3.60537109 -12.68527344 3.60537109 -11.7265625 2.62890625 C-7.72617489 -1.14521509 -6.64271804 0 0 0 Z " fill="#2FA5FA" transform="translate(141,79)"/>
</svg>
