<?xml version="1.0" encoding="UTF-8"?>
<!-- Generator: Adobe Illustrator 26.5.0, SVG Export Plug-In . SVG Version: 6.00 Build 0)  -->
<svg version="1.1" id="Layer_1" xmlns="http://www.w3.org/2000/svg" xmlns:xlink="http://www.w3.org/1999/xlink" x="0px" y="0px" viewBox="0 0 949 706" style="enable-background:new 0 0 949 706;" xml:space="preserve">
<style type="text/css">
	.st0{fill:#FFFFFF;}
	.st1{fill:none;}
	.st2{fill-rule:evenodd;clip-rule:evenodd;fill:#342482;}
	.st3{fill-rule:evenodd;clip-rule:evenodd;fill:#424140;}
	.st4{fill-rule:evenodd;clip-rule:evenodd;fill:#211757;}
	.st5{fill-rule:evenodd;clip-rule:evenodd;fill:#2A2A29;}
	.st6{fill:#2A2A29;}
</style>
<g>
	<path class="st0" d="M910,421.3c0.5,9.4-6.7,17.4-16,17.9l-155.5,8.6l-15.2,97.1c-0.4,5.3-3.2,10.3-8.1,13.3L484.2,700.3   c-2.7,1.8-5.9,2.8-9.3,2.8c-3.5,0-6.7-1-9.3-2.8L234.4,558.2c-4.8-3-7.7-8-8.1-13.3l-15.2-97.1l-155.5-8.6   c-9.4-0.5-16.5-8.5-16-17.9L1.9,227.6c-0.6-9.4,6.6-17.4,15.9-17.9l152.4-9.1L116.7,85.9c-0.9-1.6-1.5-3.4-1.9-5.4   c-1.5-9.2,4.7-18,14-19.5L471,4c1.3-0.3,2.6-0.5,3.9-0.5s2.7,0.2,3.9,0.5L821,61c9.2,1.5,15.5,10.3,14,19.5c-0.3,1.9-1,3.7-1.9,5.4   l-53.6,114.7l152.4,9.1c9.4,0.6,16.5,8.6,15.9,17.9L910,421.3z"/>
</g>
<g>
	<path class="st1" d="M910,421.3c0.5,9.4-6.7,17.4-16,17.9l-155.5,8.6l-15.2,97.1c-0.4,5.3-3.2,10.3-8.1,13.3L484.2,700.3   c-2.7,1.8-5.9,2.8-9.3,2.8c-3.5,0-6.7-1-9.3-2.8L234.4,558.2c-4.8-3-7.7-8-8.1-13.3l-15.2-97.1l-155.5-8.6   c-9.4-0.5-16.5-8.5-16-17.9L1.9,227.6c-0.6-9.4,6.6-17.4,15.9-17.9l152.4-9.1L116.7,85.9c-0.9-1.6-1.5-3.4-1.9-5.4   c-1.5-9.2,4.7-18,14-19.5L471,4c1.3-0.3,2.6-0.5,3.9-0.5s2.7,0.2,3.9,0.5L821,61c9.2,1.5,15.5,10.3,14,19.5c-0.3,1.9-1,3.7-1.9,5.4   l-53.6,114.7l152.4,9.1c9.4,0.6,16.5,8.6,15.9,17.9L910,421.3z"/>
</g>
<g>
	<path class="st2" d="M658.5,422.6l-13.6,83.5l-170,103.7l-15.4-113.4l15.4-73.7H658.5z M474.9,86.1l249.3,41.2l-27.8,62l-6,37   H474.9l-13.5-73.4L474.9,86.1z"/>
</g>
<g>
	<polygon class="st3" points="474.9,20.5 818.2,77.7 757.8,207 756.4,216.2 930.9,226.6 722.5,226.2 724.8,198.2 767.5,105.2    474.9,56.2 468.1,36.9  "/>
</g>
<g>
	<polygon class="st3" points="893.1,422.2 687.2,422.2 673,524.4 474.9,645.9 470.4,661.7 474.9,686 706.4,543.7 723.9,431.6  "/>
</g>
<g>
	<path class="st4" d="M291.3,422.6l13.6,83.5l170,103.7V422.6H291.3z M474.9,86.1l-249.3,41.2l27.8,62l6,37h215.5V86.1z"/>
</g>
<g>
	<polygon class="st5" points="474.9,20.5 131.6,77.7 192,207 193.4,216.2 18.9,226.6 227.2,226.2 225,198.2 182.2,105.2 474.9,56.2     "/>
</g>
<g>
	<polygon class="st5" points="56.7,422.2 262.6,422.2 276.8,524.4 474.9,645.9 474.9,686 243.3,543.7 225.8,431.6  "/>
</g>
<g>
	<path class="st6" d="M104.7,323v-5.7h18v6.8c0,7.1,3.8,9.7,9.9,9.7s9.9-2.6,9.9-9.9c0-8.2-3.8-13.5-16.3-22.4   c-15.9-11.5-21.1-19.6-21.1-30.9c0-15.6,9.9-24.7,28.4-24.7c18.5,0,27.7,9.1,27.7,25v4.1h-18v-5.1c0-7.1-3.5-9.8-9.5-9.8   s-9.5,2.7-9.5,9.5c0,7.2,4,12.5,16.5,21.4c15.9,11.5,21,19.4,21,31.8c0,16.2-10,25.3-28.7,25.3C114.1,348,104.7,338.9,104.7,323z"/>
</g>
<g>
	<path class="st6" d="M208.5,247.2h51.9v14.2h-32.9v26.3h26.1v14.2h-26.1v30.5h32.9v14.2h-51.9V247.2z"/>
</g>
<g>
	<path class="st6" d="M306.2,323.5v-53.4c0-15.3,9.7-24.4,28.1-24.4s28.1,9.1,28.1,24.4v10.5h-18v-11.5c0-6.5-3.8-9.2-9.5-9.2   c-5.7,0-9.5,2.7-9.5,9.2v55.5c0,6.5,3.8,9.1,9.5,9.1c5.7,0,9.5-2.6,9.5-9.1v-15.2h18v14.1c0,15.3-9.7,24.4-28.1,24.4   S306.2,338.9,306.2,323.5z"/>
</g>
<g>
	<path class="st6" d="M409.1,323v-75.8h19v76.9c0,7.1,3.6,9.7,9.7,9.7s9.7-2.6,9.7-9.7v-76.9h18.4V323c0,15.9-9.7,25-28.4,25   S409.1,338.9,409.1,323z"/>
</g>
<g>
	<path class="st6" d="M515.5,247.2h28.2c19.7,0,28.2,7.5,28.2,22.8v6.1c0,10.2-4,16.7-12.5,19.6v0.3c9.5,2.4,12.6,9.8,12.6,21v17.5   c0,4.8,0.2,8.4,2.1,12.1h-19.4c-1-2.6-1.7-4.1-1.7-12.2v-18.2c0-9.2-3.3-12.2-11.9-12.2h-6.6v42.6h-19V247.2z M541.5,289.8   c7.1,0,11.4-2.6,11.4-10.5v-7.7c0-7.1-2.9-10.2-9.7-10.2h-8.7v28.4H541.5z"/>
</g>
<g>
	<path class="st6" d="M621.3,247.2h19v99.3h-19V247.2z"/>
</g>
<g>
	<path class="st6" d="M705.5,261.4h-19.9v-14.2h58.9v14.2h-19.9v85.2h-19V261.4z"/>
</g>
<g>
	<path class="st6" d="M807.9,304.2l-23-57.1h20.3l13,36.5h0.3l13-36.5H850l-23,57.1v42.3h-19V304.2z"/>
</g>
<g>
	<path class="st6" d="M116.3,401.6v-40.2h16.1c3.3,0,5.9,0.4,7.9,1.2c2,0.8,3.5,2.1,4.7,3.8c1.1,1.7,1.7,3.5,1.7,5.3   c0,3.3-3,5.9-6,7.6c-2.1,1.2-2.1,0.7,0.1,1.5c4.1,1.6,8,4.7,8,9.1c0,1.9-0.4,3.6-1.3,5.3c-0.9,1.6-1.9,2.9-3.2,3.7   c-1.3,0.9-2.8,1.5-4.7,2c-1.9,0.4-4.2,0.7-6.9,0.7H116.3z M122,378.3h9.3c2.5,0,4.3-0.2,5.4-0.5c1.4-0.4,2.5-1.1,3.3-2   c0.7-0.9,1.1-2.1,1.1-3.5c0-1.3-0.3-2.5-1-3.5c-0.7-1-1.7-1.7-2.9-2.1c-1.3-0.4-3.4-0.6-6.5-0.6H122V378.3z M122,396.9h10.7   c1.8,0,3.1-0.1,3.9-0.2c1.3-0.2,2.4-0.6,3.3-1.1c0.9-0.5,1.6-1.3,2.2-2.2c0.6-1,0.8-2.1,0.8-3.4c0-1.5-0.4-2.8-1.2-3.9   c-0.8-1.1-2-1.9-3.4-2.3c-1.4-0.4-3.5-0.7-6.3-0.7H122V396.9z M205.4,401.6v-40.2h5.7v35.5h21v4.7H205.4z M315.4,361.4h6.3v23.2   c0,4-0.5,7.3-1.6,9.6c-1.1,2.4-3,4.3-5.8,5.8c-2.8,1.5-6.5,2.2-11.1,2.2c-4.4,0-8.1-0.6-10.9-1.9c-2.8-1.3-4.8-3.2-6-5.6   c-1.2-2.5-1.8-5.8-1.8-10.1v-23.2h6.3v23.2c0,3.5,0.4,6.1,1.1,7.7c0.8,1.7,2.1,2.9,3.9,3.8c1.9,0.9,4.1,1.3,6.8,1.3   c4.6,0,7.9-0.9,9.8-2.7c2-1.8,2.9-5.2,2.9-10.2V361.4z M380.4,401.6v-40.2h27.3v4.7h-21.6v12.4h20.7v4.7h-20.7v13.7h22.6v4.7H380.4   z M534.9,401.6v-35.5h-15.9v-4.7h37.8v4.7h-16.2v35.5H534.9z M609.8,401.6v-40.2h27.8v4.7h-22.7v12.4h21.2v4.7h-21.2v13.7h23.6v4.7   H609.8z M690.6,401.6l17.3-40.2h6.6l18.3,40.2H726l-5.2-12.2h-19l-4.9,12.2H690.6z M703.6,385.1h15.4l-4.7-11.2   c-1.4-3.4-2.5-6.2-3.2-8.4c-0.6,2.6-1.4,5.2-2.5,7.7L703.6,385.1z M785.7,401.6l3.4-40.2h9.5l11.4,28.5c1.1,2.6,1.8,4.6,2.3,6   c0.5-1.5,1.4-3.6,2.6-6.5l11.6-28h8.5l2.8,40.2h-6.1l-2.8-33.7l-14,33.7H809l-13.9-34.3l-3.4,34.3H785.7z"/>
</g>
</svg>