<?xml version="1.0" encoding="UTF-8"?>
<svg version="1.1" xmlns="http://www.w3.org/2000/svg" width="200" height="200">
<path d="M0 0 C1.81604485 -0.01007584 1.81604485 -0.01007584 3.66877747 -0.02035522 C6.97492552 -0.03605257 10.28082225 -0.04270768 13.58699012 -0.0439868 C15.65838988 -0.04541348 17.72976371 -0.04969291 19.801157 -0.05498123 C27.04453819 -0.0734609 34.28784602 -0.0816548 41.53125 -0.08007812 C48.25514845 -0.07887862 54.97872494 -0.09994839 61.70254201 -0.13156545 C67.49731775 -0.15783088 73.29198904 -0.16844108 79.08682376 -0.16716731 C82.53794973 -0.16666049 85.98878955 -0.17218564 89.43985558 -0.19352341 C93.2974106 -0.21323698 97.15414906 -0.20732276 101.01171875 -0.1953125 C102.13577118 -0.20655151 103.25982361 -0.21779053 104.41793823 -0.22937012 C117.70380578 -0.12487108 128.40810287 4.27360529 138.05200195 13.39208984 C148.12345799 24.04712557 151.13128979 35.17502837 151.11987305 49.46118164 C151.12659027 50.6718782 151.1333075 51.88257477 151.14022827 53.12995911 C151.15592561 56.43610716 151.16258072 59.74200389 151.16385984 63.04817176 C151.16528653 65.11957152 151.16956596 67.19094535 151.17485428 69.26233864 C151.19333394 76.50571983 151.20152785 83.74902766 151.19995117 90.99243164 C151.19875167 97.71633009 151.21982144 104.43990658 151.2514385 111.16372365 C151.27770393 116.95849939 151.28831413 122.75317068 151.28704035 128.5480054 C151.28653354 131.99913137 151.29205869 135.44997119 151.31339645 138.90103722 C151.33311003 142.75859224 151.3271958 146.6153307 151.31518555 150.47290039 C151.32642456 151.59695282 151.33766357 152.72100525 151.34924316 153.87911987 C151.24474412 167.16498742 146.84626775 177.86928451 137.7277832 187.51318359 C127.07274747 197.58463963 115.94484468 200.59247143 101.65869141 200.58105469 C99.84264656 200.59113052 99.84264656 200.59113052 97.98991394 200.60140991 C94.68376589 200.61710725 91.37786915 200.62376236 88.07170129 200.62504148 C86.00030153 200.62646817 83.9289277 200.6307476 81.85753441 200.63603592 C74.61415322 200.65451559 67.37084539 200.66270949 60.12744141 200.66113281 C53.40354295 200.65993331 46.67996647 200.68100308 39.9561494 200.71262014 C34.16137365 200.73888557 28.36670236 200.74949577 22.57186764 200.74822199 C19.12074167 200.74771518 15.66990186 200.75324033 12.21883583 200.77457809 C8.3612808 200.79429167 4.50454235 200.78837744 0.64697266 200.77636719 C-0.47707977 200.7876062 -1.6011322 200.79884521 -2.75924683 200.8104248 C-16.04511438 200.70592576 -26.74941146 196.30744939 -36.39331055 187.18896484 C-46.46476658 176.53392911 -49.47259839 165.40602632 -49.46118164 151.11987305 C-49.46789886 149.90917648 -49.47461609 148.69847992 -49.48153687 147.45109558 C-49.49723421 144.14494753 -49.50388932 140.83905079 -49.50516844 137.53288293 C-49.50659512 135.46148317 -49.51087455 133.39010934 -49.51616287 131.31871605 C-49.53464254 124.07533486 -49.54283644 116.83202703 -49.54125977 109.58862305 C-49.54006026 102.86472459 -49.56113003 96.14114811 -49.59274709 89.41733104 C-49.61901253 83.62255529 -49.62962273 77.827884 -49.62834895 72.03304929 C-49.62784214 68.58192331 -49.63336728 65.1310835 -49.65470505 61.68001747 C-49.67441862 57.82246244 -49.6685044 53.96572399 -49.65649414 50.1081543 C-49.66773315 48.98410187 -49.67897217 47.86004944 -49.69055176 46.70193481 C-49.58605272 33.41606726 -45.18757635 22.71177018 -36.0690918 13.06787109 C-25.41405607 2.99641506 -14.28615327 -0.01141674 0 0 Z " fill="#4D90D8" transform="translate(49.170654296875,-0.29052734375)"/>
<path d="M0 0 C-0.15146484 0.85827393 -0.30292969 1.71654785 -0.45898438 2.60083008 C-8.67096313 45.00058203 -8.67096313 45.00058203 3.30859375 84.921875 C9.93661743 93.06531287 17.63568683 97.49363747 28 99 C29.90819594 99.10745948 31.8190097 99.17450016 33.72998047 99.20532227 C34.83066864 99.22526749 35.93135681 99.24521271 37.06539917 99.26576233 C38.23748932 99.28247482 39.40957947 99.29918732 40.6171875 99.31640625 C42.43562668 99.3475779 42.43562668 99.3475779 44.290802 99.37937927 C48.1521453 99.44460982 52.01355491 99.50363651 55.875 99.5625 C58.49740261 99.60571041 61.11979859 99.6493255 63.7421875 99.69335938 C70.16138882 99.80026404 76.58065569 99.9020791 83 100 C83.10034954 104.05257753 83.1721497 108.10465479 83.21972656 112.15820312 C83.23959978 113.53137844 83.26670858 114.90447196 83.30175781 116.27734375 C83.67904905 131.45776758 80.448716 143.06446208 69.8984375 154.22265625 C59.24340177 164.29411229 48.11549897 167.30194409 33.8293457 167.29052734 C32.01330086 167.30060318 32.01330086 167.30060318 30.16056824 167.31088257 C26.85442018 167.32657991 23.54852345 167.33323502 20.24235559 167.33451414 C18.17095583 167.33594082 16.09958199 167.34022026 14.02818871 167.34550858 C6.78480751 167.36398824 -0.45850031 167.37218215 -7.7019043 167.37060547 C-14.42580275 167.36940597 -21.14937923 167.39047573 -27.8731963 167.4220928 C-33.66797205 167.44835823 -39.46264334 167.45896843 -45.25747806 167.45769465 C-48.70860403 167.45718784 -52.15944385 167.46271299 -55.61050987 167.48405075 C-59.4680649 167.50376433 -63.32480335 167.4978501 -67.18237305 167.48583984 C-68.30642548 167.49707886 -69.43047791 167.50831787 -70.58859253 167.51989746 C-83.87446008 167.41539842 -94.57875716 163.01692205 -104.22265625 153.8984375 C-112.47856662 145.16414728 -117.29945807 134.88686548 -117.1953125 122.75390625 C-117.1924826 122.09792953 -117.18965271 121.44195282 -117.18673706 120.76609802 C-117.17565984 118.69803591 -117.15058063 116.63042827 -117.125 114.5625 C-117.11495402 113.14909485 -117.10583102 111.73568283 -117.09765625 110.32226562 C-117.07576184 106.88136606 -117.04132051 103.44072748 -117 100 C-115.87580406 99.9845388 -115.87580406 99.9845388 -114.72889709 99.96876526 C-107.68009546 99.87095475 -100.63138126 99.76846424 -93.58272648 99.66066074 C-89.9585842 99.60539903 -86.3344339 99.551974 -82.71020508 99.50268555 C-79.21532901 99.45508968 -75.7205538 99.4027489 -72.22579765 99.34705925 C-70.23766177 99.31663587 -68.24945191 99.29118018 -66.26124573 99.26576233 C-64.45949135 99.2358445 -64.45949135 99.2358445 -62.62133789 99.20532227 C-61.55766495 99.18977798 -60.493992 99.1742337 -59.39808655 99.15821838 C-57.04804072 99.26771448 -57.04804072 99.26771448 -56 98 C-55.79641737 96.50974516 -55.6526485 95.01121898 -55.53515625 93.51171875 C-55.4587793 92.58391602 -55.38240234 91.65611328 -55.30371094 90.70019531 C-55.22411133 89.70600586 -55.14451172 88.71181641 -55.0625 87.6875 C-52.82973606 62.21775286 -46.58034996 39.28069469 -29 20 C-28.32582031 19.23300781 -27.65164062 18.46601562 -26.95703125 17.67578125 C-21.06534655 11.34194385 -9.0835041 0 0 0 Z " fill="#4D90D8" transform="translate(117,33)"/>
<path d="M0 0 C0.99 0.99 0.99 0.99 2 2 C1.55302728 8.14071754 0.25677277 14.1539807 -0.9375 20.1875 C-3.43090369 32.78724716 -5.39279072 44.9927373 -5.375 57.875 C-5.37338867 59.09719238 -5.37177734 60.31938477 -5.37011719 61.57861328 C-5.20269549 73.92021833 -3.97404844 85.21146415 4.60546875 94.79296875 C12.73701664 101.96077763 21.40837184 102.45369936 31.91015625 102.51171875 C33.72222816 102.53864555 33.72222816 102.53864555 35.57090759 102.56611633 C39.40140368 102.61997878 43.23177685 102.65403865 47.0625 102.6875 C49.67124097 102.72069421 52.27996577 102.7551858 54.88867188 102.79101562 C61.25900432 102.87569155 67.62935315 102.94414279 74 103 C74 105.97 74 108.94 74 112 C66.33197885 112.05090046 58.66400164 112.08581765 50.99584961 112.10986328 C48.38971325 112.11989248 45.78358807 112.13351911 43.17749023 112.15087891 C39.42168411 112.1752626 35.66602737 112.18651424 31.91015625 112.1953125 C30.75354996 112.20563507 29.59694366 112.21595764 28.4052887 112.22659302 C16.42404814 112.2282377 6.42028053 110.14451103 -2.6875 101.9375 C-15.21400242 88.45189183 -15.77310956 69.915401 -15.43359375 52.5703125 C-14.18127166 22.36254333 -14.18127166 22.36254333 -9 12 C-32.65969573 22.41654745 -46.98597403 41.41015875 -56.51171875 64.6953125 C-61.43533574 78.386812 -63.17702582 92.71081779 -63.69140625 107.19140625 C-64 110 -64 110 -66 112 C-68.51834106 112.24050903 -68.51834106 112.24050903 -71.73486328 112.22705078 C-72.93595734 112.22689972 -74.13705139 112.22674866 -75.37454224 112.22659302 C-76.67664642 112.21627045 -77.97875061 112.20594788 -79.3203125 112.1953125 C-80.66266673 112.19158276 -82.00502367 112.18873561 -83.34738159 112.18673706 C-86.882014 112.17909744 -90.41648228 112.1594463 -93.9510498 112.1373291 C-97.5571877 112.11687765 -101.16335209 112.10773685 -104.76953125 112.09765625 C-111.84642135 112.0762006 -118.92319997 112.04206079 -126 112 C-126 109.03 -126 106.06 -126 103 C-108.18 103 -90.36 103 -72 103 C-72 98.38 -72 93.76 -72 89 C-69.23897169 61.3897169 -57.08708853 35.33783102 -36 17 C-9.42860252 -3.9014907 -9.42860252 -3.9014907 0 0 Z " fill="#333333" transform="translate(126,21)"/>
</svg>
